<svg width="2500" height="1686" viewBox="0 0 2500 1686" xmlns="http://www.w3.org/2000/svg" role="img" aria-label="YogiDiver 優潛人 LINE OA rich menu 6-grid">
  <defs>
    <linearGradient id="bg" x1="0" y1="0" x2="2500" y2="1686" gradientUnits="userSpaceOnUse"><stop stop-color="#031B33"/><stop offset="0.55" stop-color="#075E86"/><stop offset="1" stop-color="#08A8B7"/></linearGradient>
    <radialGradient id="glow" cx="50%" cy="35%" r="72%"><stop offset="0" stop-color="#25E6D6" stop-opacity="0.45"/><stop offset="1" stop-color="#25E6D6" stop-opacity="0"/></radialGradient>
    <style>.panel{fill:rgba(255,255,255,.12);stroke:rgba(255,255,255,.34);stroke-width:8}.title{fill:#fff;font-family:Arial,'Noto Sans TC',sans-serif;font-size:104px;font-weight:900;text-anchor:middle}.sub{fill:#BDF7F0;font-family:Arial,'Noto Sans TC',sans-serif;font-size:42px;font-weight:700;text-anchor:middle;letter-spacing:6px}.icon{fill:none;stroke:#8BFFF4;stroke-width:28;stroke-linecap:round;stroke-linejoin:round}</style>
  </defs>
  <rect width="2500" height="1686" fill="url(#bg)"/><rect width="2500" height="1686" fill="url(#glow)"/>
  <path d="M-80 1220C260 1000 560 1040 860 1228C1160 1414 1470 1376 1772 1178C2044 1000 2260 1006 2580 1184" fill="none" stroke="#FFFFFF" stroke-opacity=".10" stroke-width="120"/>
  <rect class="panel" x="0" y="0" width="833" height="843"/><rect class="panel" x="833" y="0" width="834" height="843"/><rect class="panel" x="1667" y="0" width="833" height="843"/><rect class="panel" x="0" y="843" width="833" height="843"/><rect class="panel" x="833" y="843" width="834" height="843"/><rect class="panel" x="1667" y="843" width="833" height="843"/>
  <g transform="translate(416 272)"><circle class="icon" cx="0" cy="0" r="92"/><path class="icon" d="M-150 138C-66 78 46 78 150 138"/><path class="icon" d="M-62 -14h124"/></g><text class="title" x="416" y="505">休閒業餘</text><text class="sub" x="416" y="590">OWD · AOW · RESCUE</text>
  <g transform="translate(1250 272)"><path class="icon" d="M-120 96V-70L0-142L120-70V96Z"/><path class="icon" d="M-58 -2H58M0 -62V62"/></g><text class="title" x="1250" y="505">專業人士</text><text class="sub" x="1250" y="590">DM · OWSI · MSDT</text>
  <g transform="translate(2083 272)"><path class="icon" d="M-160 38C-72-52 68-52 160 38"/><path class="icon" d="M-122 126C-44 78 42 78 122 126"/><circle class="icon" cx="0" cy="-28" r="56"/></g><text class="title" x="2083" y="505">導覽潛水</text><text class="sub" x="2083" y="590">2 人開團</text>
  <g transform="translate(416 1115)"><rect class="icon" x="-122" y="-112" width="244" height="224" rx="34"/><path class="icon" d="M-62 -148V-80M62 -148V-80M-64 -8H62M-64 62H28"/></g><text class="title" x="416" y="1348">預訂行程</text><text class="sub" x="416" y="1433">COURSE · DIVE · PAY</text>
  <g transform="translate(1250 1115)"><path class="icon" d="M-100-126H72L126-72V126H-100Z"/><path class="icon" d="M70-124V-70H126M-48 8H50M-48 72H26"/></g><text class="title" x="1250" y="1348">行前須知</text><text class="sub" x="1250" y="1433">PRE-TRIP GUIDE</text>
  <g transform="translate(2083 1115)"><rect class="icon" x="-142" y="-102" width="284" height="204" rx="34"/><path class="icon" d="M-48-22L44 34L-48 90Z"/></g><text class="title" x="2083" y="1348">線上體驗</text><text class="sub" x="2083" y="1433">ONLINE EXPERIENCE</text>
  <text x="1250" y="1624" fill="#D8FFFA" font-family="Arial,'Noto Sans TC',sans-serif" font-size="48" font-weight="800" text-anchor="middle">YogiDiver 優潛人</text>
</svg>
